<?xml version="1.0" encoding="utf-8"?>
<!-- Designed by Vexels.com - 2016 All Rights Reserved - https://vexels.com/terms-and-conditions/  -->

<svg version="1.1" id="Capa_1" xmlns="http://www.w3.org/2000/svg" xmlns:xlink="http://www.w3.org/1999/xlink" x="0px" y="0px"
	 width="1200px" height="1200px" viewBox="0 0 1200 1200" enable-background="new 0 0 1200 1200" xml:space="preserve">
<g>
	<g>
		<g id="Capa_1_1_">
			<path fill="#ffffff" d="M196.606,978.24c204.018,197.85,551.576,238.615,773.667,49.143
				c118.965-101.51,177.166-263.097,178.679-416.483c1.69-170.985-80.555-333.314-211.644-440.945
				C837.589,88.09,712.771,42.108,583.235,51.118c-118.883,8.274-229.139,61.95-319.131,138.197
				C81.677,343.889-7.261,606.229,92.615,830.7C117.183,885.923,154.448,935.277,196.606,978.24
				c25.57,26.054,65.541-13.951,39.991-39.991c-89.681-91.37-137.406-208.611-129.691-336.934
				c7.062-117.588,63.407-230.2,140.916-317.106c78.755-88.305,184.206-151.487,301.1-172.341
				c128.151-22.872,256.439,22.606,355.285,103.753c231.986,190.469,255.567,568.62,26.067,771.778
				c-195.014,172.612-515.801,123.353-693.676-49.145C210.415,912.856,170.383,952.805,196.606,978.24z"/>
			<path fill="#ffffff" d="M356.571,821.915c55.762-79.479,162.131-108.203,254.525-108.429
				c92.609-0.231,185.521,42.303,242.045,116.218c21.836,28.556,70.986,0.438,48.837-28.541
				c-70.516-92.229-175.421-141.176-290.882-144.235c-113.091-3.005-236.88,41.683-303.363,136.445
				C286.744,823.305,335.8,851.527,356.571,821.915L356.571,821.915z"/>
			<g>
				<g>
					<path fill="#ffffff" d="M393.674,543.885c0.245,0.245,0.463,0.512,0.668,0.791c-1.474-1.908-2.944-3.824-4.416-5.719
						c0.271,0.416,0.489,0.824,0.701,1.274c-0.962-2.241-1.908-4.498-2.85-6.753c0.198,0.6,0.354,1.179,0.443,1.805
						c-0.341-2.5-0.669-5.008-1.009-7.517c0.17,1.718-0.056,3.388-0.246,5.091c-0.872,7.994,3.148,16.623,8.614,22.184
						c7.23,7.374,20.051,10.986,29.886,6.958c7.153-2.931,14.829-6.433,20.41-12.001c6.891-6.904,9.534-17.883,9.938-27.404
						c0.47-11.122-5.848-21.331-14.98-27.157c-4.934-3.148-11.885-4.777-17.69-4.342c-1.867,0.145-3.674,0.438-5.562,0.231
						c2.509,0.342,5.022,0.675,7.524,1.021c-0.642-0.107-1.24-0.244-1.841-0.455c2.249,0.946,4.498,1.895,6.747,2.848
						c-0.449-0.203-0.859-0.429-1.281-0.701c1.901,1.472,3.816,2.951,5.718,4.43c-0.286-0.204-0.546-0.437-0.784-0.682
						c-11.34-10.428-28.76-11.225-39.989,0c-10.564,10.562-11.354,29.551,0,39.991c7.251,6.665,15.114,9.63,24.867,10.183
						c2.188,0.121,4.361-0.505,6.542-0.342c-2.508-0.334-5.002-0.674-7.51-1.016c0.326,0.049,0.627,0.123,0.961,0.219
						c-2.263-0.947-4.512-1.902-6.768-2.85c0.19,0.075,0.375,0.171,0.518,0.286c-1.887-1.473-3.803-2.943-5.711-4.424
						c0.164,0.123,0.301,0.268,0.431,0.431c-1.474-1.901-2.958-3.816-4.431-5.719c0.136,0.171,0.238,0.375,0.313,0.587
						c-0.962-2.257-1.896-4.512-2.85-6.768c0.097,0.252,0.144,0.504,0.191,0.77c-0.349-2.501-0.676-5.016-1.016-7.518
						c0.067,0.729,0.041,1.425-0.027,2.16c0.34-2.507,0.667-5.021,1.008-7.517c-0.312,2.126-0.912,4.17-1.581,6.216
						c4.335-5.638,8.669-11.267,13.003-16.901c-2.562,1.689-5.125,3.448-7.926,4.729c2.25-0.946,4.505-1.895,6.754-2.842
						c-0.504,0.197-0.988,0.381-1.533,0.478c2.509-0.341,5.023-0.675,7.511-1.017c-0.156,0.027-0.326,0.021-0.483-0.006
						c2.487,0.334,5.003,0.674,7.503,1.008c-0.067-0.02-0.122-0.041-0.184-0.061c2.241,0.953,4.498,1.895,6.761,2.854
						c-0.055-0.034-0.108-0.067-0.163-0.104c1.908,1.479,3.822,2.951,5.725,4.424c-0.041-0.047-0.096-0.088-0.137-0.137
						c1.473,1.909,2.957,3.815,4.43,5.725c-0.041-0.055-0.067-0.115-0.108-0.163c0.955,2.256,1.901,4.512,2.854,6.761
						c-0.067-0.137-0.108-0.266-0.123-0.416c0.343,2.503,0.669,5.011,1.011,7.519c-0.186-1.711,0.312-3.482,0.348-5.2
						c0.156-9.609-3.775-18.271-10.182-25.243c-10.441-11.34-29.448-10.557-39.991,0
						C382.441,515.125,383.245,532.551,393.674,543.885L393.674,543.885z"/>
					<path fill="#ffffff" d="M747.801,543.885c0.245,0.245,0.456,0.512,0.667,0.791c-1.473-1.908-2.943-3.824-4.416-5.719
						c0.271,0.416,0.491,0.824,0.695,1.274c-0.955-2.241-1.901-4.498-2.843-6.753c0.198,0.6,0.354,1.179,0.442,1.805
						c-0.34-2.5-0.668-5.008-1.008-7.517c0.171,1.718-0.062,3.388-0.245,5.091c-0.873,8.002,3.147,16.614,8.606,22.184
						c7.225,7.374,20.051,10.986,29.892,6.958c7.154-2.931,14.815-6.427,20.391-12.001c6.911-6.904,9.542-17.883,9.957-27.404
						c0.471-11.129-5.854-21.331-14.993-27.157c-4.935-3.148-11.886-4.777-17.678-4.342c-1.868,0.145-3.673,0.438-5.562,0.231
						c2.509,0.342,5.018,0.675,7.524,1.021c-0.642-0.107-1.241-0.244-1.841-0.455c2.242,0.946,4.498,1.895,6.747,2.848
						c-0.45-0.203-0.858-0.429-1.288-0.701c1.908,1.472,3.823,2.951,5.725,4.43c-0.285-0.204-0.545-0.437-0.791-0.682
						c-11.34-10.428-28.76-11.225-39.982,0c-10.57,10.562-11.354,29.551,0,39.991c7.251,6.665,15.115,9.63,24.86,10.183
						c2.188,0.121,4.349-0.505,6.55-0.342c-2.508-0.334-5.017-0.674-7.523-1.016c0.34,0.049,0.641,0.123,0.954,0.219
						c-2.242-0.947-4.498-1.902-6.747-2.85c0.178,0.075,0.354,0.171,0.518,0.286c-1.908-1.473-3.814-2.943-5.725-4.424
						c0.164,0.123,0.314,0.268,0.43,0.431c-1.472-1.901-2.943-3.816-4.423-5.719c0.144,0.171,0.231,0.375,0.32,0.587
						c-0.961-2.257-1.908-4.512-2.85-6.768c0.083,0.252,0.144,0.504,0.185,0.77c-0.341-2.501-0.682-5.016-1.016-7.518
						c0.081,0.729,0.055,1.425-0.027,2.16c0.342-2.507,0.682-5.021,1.016-7.517c-0.312,2.126-0.927,4.17-1.581,6.216
						c4.335-5.638,8.655-11.267,12.983-16.901c-2.543,1.689-5.119,3.448-7.905,4.729c2.248-0.946,4.504-1.895,6.747-2.842
						c-0.498,0.197-0.995,0.381-1.527,0.478c2.509-0.341,5.002-0.675,7.511-1.017c-0.156,0.027-0.326,0.021-0.504-0.006
						c2.507,0.334,5.022,0.674,7.523,1.008c-0.067-0.02-0.123-0.041-0.185-0.061c2.242,0.953,4.498,1.895,6.747,2.854
						c-0.056-0.034-0.103-0.067-0.149-0.104c1.907,1.479,3.815,2.951,5.725,4.424c-0.055-0.047-0.096-0.088-0.144-0.137
						c1.479,1.909,2.95,3.815,4.438,5.725c-0.041-0.055-0.075-0.115-0.116-0.163c0.961,2.256,1.906,4.512,2.86,6.761
						c-0.067-0.137-0.106-0.266-0.122-0.416c0.327,2.503,0.669,5.011,1.01,7.519c-0.186-1.711,0.312-3.482,0.341-5.2
						c0.163-9.609-3.776-18.271-10.184-25.243c-10.439-11.34-29.439-10.557-39.982,0
						C736.569,515.125,737.373,532.551,747.801,543.885L747.801,543.885z"/>
				</g>
				<path fill="#ffffff" d="M691.235,485.847c47.72-19.84,95.433-39.664,143.15-59.489c20.459-8.519,11.497-42.294-9.281-33.652
					c-47.706,19.839-95.426,39.664-143.151,59.496C661.493,460.707,670.462,494.483,691.235,485.847L691.235,485.847z"/>
				<path fill="#ffffff" d="M512.309,452.202c-47.705-19.84-95.425-39.664-143.146-59.496c-20.778-8.636-29.747,25.141-9.267,33.652
					c47.719,19.832,95.425,39.657,143.146,59.489C523.821,494.483,532.782,460.707,512.309,452.202L512.309,452.202z"/>
			</g>
		</g>
	</g>
	<g id="Capa_2">
	</g>
	<g id="Capa_3">
	</g>
</g>
</svg>
