<?xml version="1.0" encoding="utf-8"?>
<!-- Designed by Vexels.com - 2016 All Rights Reserved - https://vexels.com/terms-and-conditions/  -->

<svg version="1.0" id="Capa_1" xmlns="http://www.w3.org/2000/svg" xmlns:xlink="http://www.w3.org/1999/xlink" x="0px" y="0px"
	 width="1200px" height="1200px" viewBox="0 0 1200 1200" enable-background="new 0 0 1200 1200" xml:space="preserve">
<g>
	<g>
		<g>
			<g>
				<g>
					<path fill="#ffffff" d="M599.999,1150.492c-303.545,0-550.489-246.951-550.489-550.495
						c0-303.54,246.945-550.489,550.489-550.489c303.546,0,550.489,246.949,550.489,550.489
						C1150.489,903.542,903.545,1150.492,599.999,1150.492z M599.999,76.693c-288.545,0-523.303,234.752-523.303,523.304
						s234.758,523.309,523.303,523.309c288.546,0,523.303-234.756,523.303-523.309S888.546,76.693,599.999,76.693z"/>
					<path fill="#ffffff" d="M599.999,1157.289c-307.289,0-557.285-250.004-557.285-557.292
						c0-307.289,249.995-557.286,557.285-557.286s557.286,249.997,557.286,557.286
						C1157.286,907.285,907.289,1157.289,599.999,1157.289z M599.999,56.303c-299.788,0-543.692,243.898-543.692,543.694
						s243.904,543.698,543.692,543.698c299.789,0,543.692-243.903,543.692-543.698S899.789,56.303,599.999,56.303z
						 M599.999,1130.103c-292.301,0-530.1-237.804-530.1-530.106c0-292.295,237.798-530.1,530.1-530.1
						c292.303,0,530.1,237.804,530.1,530.1C1130.099,892.298,892.302,1130.103,599.999,1130.103z M599.999,83.49
						c-284.802,0-516.506,231.704-516.506,516.507c0,284.808,231.704,516.513,516.506,516.513
						c284.803,0,516.507-231.706,516.507-516.513C1116.506,315.194,884.802,83.49,599.999,83.49z"/>
				</g>
			</g>
		</g>
		<g>
			<g>
				<path fill="#ffffff" d="M212.866,665.408c0,0,65.346,324.76,387.137,324.76c300.005,0,387.137-324.76,387.137-324.76H212.866z
					 M600.325,907.188c-156.711,0.302-140.164-213.491-140.164-213.491h280.142C740.303,693.697,746.767,906.905,600.325,907.188z"
					/>
			</g>
		</g>
		<g>
			<g>
				<g>
					<g>
						<path fill="#ffffff" d="M397.362,516.544c43.731,0,43.804-67.966,0-67.966C353.629,448.578,353.557,516.544,397.362,516.544
							L397.362,516.544z"/>
					</g>
				</g>
			</g>
			<g>
				<g>
					<g>
						<path fill="#ffffff" d="M802.643,516.544c43.731,0,43.804-67.966,0-67.966C758.91,448.578,758.839,516.544,802.643,516.544
							L802.643,516.544z"/>
					</g>
				</g>
			</g>
		</g>
	</g>
	<g>
		<g opacity="0.41">
			<g>
				<g>
					<path fill="#ffffff" d="M830.007,702.661L830.007,702.661c12.742,31.386,40.414,57.098,73.507,64.33
						c33.092,7.232,70.548-5.804,89.522-33.865c10.548-15.601,15.131-34.618,16.105-53.423
						c2.023-39.124-11.964-79.75-40.968-106.084c-28.044-25.462-82.747-42.964-112.494-12.559
						C821.395,596.1,811.958,658.196,830.007,702.661z"/>
				</g>
			</g>
		</g>
		<g opacity="0.41">
			<g>
				<g>
					<path fill="#ffffff" d="M392.189,702.661L392.189,702.661c-12.74,31.386-40.413,57.098-73.506,64.33
						c-33.092,7.232-70.548-5.804-89.522-33.865c-10.548-15.601-15.131-34.618-16.103-53.423
						c-2.025-39.124,11.964-79.75,40.968-106.084c28.042-25.462,82.747-42.964,112.494-12.559
						C400.801,596.1,410.239,658.196,392.189,702.661z"/>
				</g>
			</g>
		</g>
	</g>
</g>
</svg>
